<svg class="h-10 w-auto" xmlns="http://www.w3.org/2000/svg" xmlns:xlink="http://www.w3.org/1999/xlink" viewBox="0 0 101.14 114.68"><defs><style>.cls-1{fill:#6366f1;}.cls-2{mask:url(#mask);}.cls-3{mask:url(#mask-2);}.cls-4{mask:url(#mask-3);}.cls-5{mask:url(#mask-4);}.cls-6{filter:url(#luminosity-noclip-4);}.cls-7{filter:url(#luminosity-noclip-3);}.cls-8{filter:url(#luminosity-noclip-2);}.cls-9{filter:url(#luminosity-noclip);}</style><filter id="luminosity-noclip" x="34.45" y="-8249.25" width="8" height="32766" filterUnits="userSpaceOnUse" color-interpolation-filters="sRGB"><feFlood flood-color="#fff" result="bg"></feFlood><feBlend in="SourceGraphic" in2="bg"></feBlend></filter><mask id="mask" x="34.45" y="-8249.25" width="8" height="32766" maskUnits="userSpaceOnUse"><g class="cls-9"></g></mask><filter id="luminosity-noclip-2" x="65.59" y="-8249.25" width="8" height="32766" filterUnits="userSpaceOnUse" color-interpolation-filters="sRGB"><feFlood flood-color="#fff" result="bg"></feFlood><feBlend in="SourceGraphic" in2="bg"></feBlend></filter><mask id="mask-2" x="65.59" y="-8249.25" width="8" height="32766" maskUnits="userSpaceOnUse"><g class="cls-8"></g></mask><filter id="luminosity-noclip-3" x="58.6" y="-8249.25" width="8" height="32766" filterUnits="userSpaceOnUse" color-interpolation-filters="sRGB"><feFlood flood-color="#fff" result="bg"></feFlood><feBlend in="SourceGraphic" in2="bg"></feBlend></filter><mask id="mask-3" x="58.6" y="-8249.25" width="8" height="32766" maskUnits="userSpaceOnUse"><g class="cls-7"></g></mask><filter id="luminosity-noclip-4" x="28.15" y="-8249.25" width="8" height="32766" filterUnits="userSpaceOnUse" color-interpolation-filters="sRGB"><feFlood flood-color="#fff" result="bg"></feFlood><feBlend in="SourceGraphic" in2="bg"></feBlend></filter><mask id="mask-4" x="28.15" y="-8249.25" width="8" height="32766" maskUnits="userSpaceOnUse"><g class="cls-6"></g></mask></defs><path class="cls-1" d="M41.55,4.25c3.6-2,7.66-5.85,12-3.52,14.93,8.43,29.77,17.05,44.6,25.65,3.87,2.07,2.77,7,3,10.59-.21,1.81.46,4.09-1,5.52C91,52.3,80.2,60.47,68.86,67.56c-3.23-1.67-7.17-2.59-10.55-.81-5.57,2.44-7.56,10.29-3.67,15,3.78,5.35,12.7,5.21,16.22-.34,2.2-2.52,1.21-6.14,2.19-9a187,187,0,0,0,28-21.82c0,10.83.09,21.66,0,32.49A5.78,5.78,0,0,1,98,88.38C87.31,94.71,76.43,100.72,65.72,107a151.64,151.64,0,0,1-25.33-31.7c1.49-2.86,2.6-6.24,1.26-9.37-1.83-6.12-10.11-8.81-15.17-4.89-5.08,3.24-5.75,11.19-1.3,15.25,2.56,2.86,6.57,3,10.14,2.86A164,164,0,0,0,60,110.26c-3.8,1.88-8,6.17-12.43,3.64C33.07,105.82,18.8,97.31,4.34,89.12c-1.65-1-3.56-2.07-4-4.11A75.22,75.22,0,0,1,.07,73.88c-.31-1.52,1-2.48,1.85-3.49A159.1,159.1,0,0,1,32.31,46.27c4.13,2.43,9.95,2.58,13.36-1.17A10,10,0,0,0,45,30.53c-4.28-3.89-11.82-2.92-14.86,2-1.86,2.45-1.47,5.61-1.69,8.48C18.49,47.78,8.69,54.87.05,63.31.11,52.52-.08,41.73.13,31,0,28.06,2.68,26.44,4.86,25.19c10.37-5.82,20.61-11.85,31-17.72C46,16.64,54.12,27.74,61.47,39.21c-1.51,2.84-2.65,6.17-1.41,9.35,1.73,5.83,9.29,8.76,14.48,5.55,5.28-2.75,6.79-10.58,2.79-15-2.51-3.23-6.81-4.06-10.66-3.43C59.47,24.33,51.33,13.49,41.55,4.25Z"></path><g class="cls-2"><circle class="cls-1" cx="38.45" cy="38.08" r="4"></circle></g><g class="cls-3"><circle class="cls-1" cx="69.59" cy="45.43" r="4"></circle></g><g class="cls-4"><circle class="cls-1" cx="62.6" cy="75.97" r="4"></circle></g><g class="cls-5"><circle class="cls-1" cx="32.15" cy="69.23" r="4"></circle></g></svg>