<svg id="Layer_4" data-name="Layer 4" xmlns="http://www.w3.org/2000/svg" viewBox="0 0 141.09 184.89"><defs><style>.cls-1{fill:#0d53d7;}</style></defs><path class="cls-1" d="M664.89,596.67c1.12-.11,2.24-.26,3.34-.46a49.91,49.91,0,0,0,41.32-49.15h-91.2A49.88,49.88,0,0,0,568.45,597h91.2A47.74,47.74,0,0,0,664.89,596.67Z" transform="translate(-568.45 -547.06)"/><path class="cls-1" d="M643.08,681.5H599.56a49.89,49.89,0,0,0-28.13,44.9,48.09,48.09,0,0,0,.31,5.54H669.6l1.33-.28a49.91,49.91,0,0,0,38.62-48.61c0-.52,0-1,0-1.55Z" transform="translate(-568.45 -547.06)"/><path class="cls-1" d="M609.76,663.8h99.76a49.91,49.91,0,0,0-41.31-47.61c-1.2-.2-2.41-.37-3.63-.48l.1-.25H568.46A49.89,49.89,0,0,0,609.76,663.8Zm26.39-42.47c-1.08.58-2.13,1.19-3.16,1.84C634,622.52,635.07,621.91,636.15,621.33ZM616.67,640a49.59,49.59,0,0,1,4.16-6c.76-.94,1.55-1.86,2.38-2.74s1.69-1.74,2.58-2.57,1.81-1.61,2.75-2.37c-.94.76-1.86,1.55-2.75,2.37s-1.75,1.68-2.58,2.57-1.62,1.8-2.38,2.74a49.59,49.59,0,0,0-4.16,6c-.62,1-1.2,2.12-1.74,3.22C615.47,642.13,616.05,641.06,616.67,640Z" transform="translate(-568.45 -547.06)"/></svg>