<svg id="Layer_1" data-name="Layer 1" xmlns="http://www.w3.org/2000/svg" viewBox="0 0 124.38 51.75"><defs><style>.cls-1{fill:#584a42;}.cls-2{fill:#68c8c0;}</style></defs><polygon class="cls-1" points="27.23 12.8 22.6 6.82 27.82 4.04 31.31 8.55 27.23 12.8"/><path class="cls-1" d="M31.88,12.17a11.41,11.41,0,1,0-2,16A11.41,11.41,0,0,0,31.88,12.17ZM26.64,24a6.18,6.18,0,1,1,1.1-8.67A6.18,6.18,0,0,1,26.64,24Z" transform="translate(-5.49 -3.5)"/><polygon class="cls-1" points="11.59 24.9 6.96 18.92 2.96 23.27 6.45 27.78 11.59 24.9"/><polygon class="cls-1" points="26.1 21.18 20.12 25.8 24.47 29.8 28.98 26.32 26.1 21.18"/><polygon class="cls-1" points="14.37 5.8 8.38 10.43 5.6 5.22 10.12 1.73 14.37 5.8"/><polygon class="cls-1" points="7.96 10.93 7.01 18.43 1.35 16.71 2.07 11.05 7.96 10.93"/><polygon class="cls-1" points="14.76 5.67 22.26 6.63 22.01 0.72 16.36 0 14.76 5.67"/><polygon class="cls-1" points="19.61 26.19 12.11 25.23 12.36 31.14 18.01 31.86 19.61 26.19"/><polygon class="cls-1" points="26.53 20.68 27.48 13.18 33.14 14.9 32.41 20.56 26.53 20.68"/><path class="cls-1" d="M5.49,42h2L9.72,48,12,42.57,14.33,48,16.57,42h2L14.33,52.29,12,46.46,9.59,52.29Z" transform="translate(-5.49 -3.5)"/><path class="cls-1" d="M26.65,50.4a4.7,4.7,0,0,1-3.6,1.89,4.09,4.09,0,1,1,0-8.17,4.17,4.17,0,0,1,4,4.36v.3H20.63a2.33,2.33,0,0,0,2.37,2,2.73,2.73,0,0,0,2.24-1.2Zm-1.53-3a2.34,2.34,0,0,0-2.29-1.81,2.2,2.2,0,0,0-2.2,1.81Z" transform="translate(-5.49 -3.5)"/><path class="cls-1" d="M29,42h1.66v3.25h0a3.11,3.11,0,0,1,2.53-1.16,4.09,4.09,0,0,1,0,8.17,3.11,3.11,0,0,1-2.53-1.16h0v.95H29Zm4.08,3.66a2.52,2.52,0,1,0,2.42,2.52A2.41,2.41,0,0,0,33.1,45.69Z" transform="translate(-5.49 -3.5)"/><path class="cls-2" d="M41.27,43.79H38.33V42h7.74v1.76H43.13v8.29H41.27Z" transform="translate(-5.49 -3.5)"/><path class="cls-2" d="M49.63,44.12a4.09,4.09,0,1,1-4.28,4.09A4.1,4.1,0,0,1,49.63,44.12Zm0,6.6a2.52,2.52,0,1,0-2.51-2.51A2.47,2.47,0,0,0,49.63,50.72Z" transform="translate(-5.49 -3.5)"/><path class="cls-2" d="M59.42,44.12a4.09,4.09,0,1,1-4.27,4.09A4.1,4.1,0,0,1,59.42,44.12Zm0,6.6a2.52,2.52,0,1,0-2.51-2.51A2.46,2.46,0,0,0,59.42,50.72Z" transform="translate(-5.49 -3.5)"/><path class="cls-2" d="M67.21,42V49c0,.89.19,1.21.69,1.5l.9.51-.74,1.32c-1.71-.82-2.51-1.41-2.51-3V42Z" transform="translate(-5.49 -3.5)"/><path class="cls-2" d="M70.36,49.77a3.61,3.61,0,0,0,2.43,1.14c1,0,1.54-.54,1.54-1s-.4-.78-1-.89l-.94-.18c-2.18-.4-2.79-1.1-2.79-2.21,0-1.31,1.11-2.53,3-2.53a5,5,0,0,1,3.08,1.08l-.95,1.16a3.21,3.21,0,0,0-2.08-.86c-.72,0-1.42.35-1.42,1,0,.46.37.7,1,.81l1.68.32c1.37.26,2,.92,2,2.07s-.93,2.61-3.29,2.61a5.21,5.21,0,0,1-3.48-1.36Z" transform="translate(-5.49 -3.5)"/><path class="cls-1" d="M76.75,42h2L81,48l2.29-5.41L85.58,48,87.82,42h2L85.58,52.29l-2.32-5.83-2.42,5.83Z" transform="translate(-5.49 -3.5)"/><path class="cls-1" d="M97.9,50.4a4.67,4.67,0,0,1-3.6,1.89,4.09,4.09,0,1,1,0-8.17,4.17,4.17,0,0,1,4,4.36v.3H91.89a2.32,2.32,0,0,0,2.36,2,2.77,2.77,0,0,0,2.25-1.2Zm-1.53-3a2.33,2.33,0,0,0-2.29-1.81,2.19,2.19,0,0,0-2.19,1.81Z" transform="translate(-5.49 -3.5)"/><path class="cls-1" d="M107.7,50.4a4.71,4.71,0,0,1-3.61,1.89,4.09,4.09,0,1,1,0-8.17,4.17,4.17,0,0,1,4,4.36v.3h-6.43a2.32,2.32,0,0,0,2.37,2,2.76,2.76,0,0,0,2.24-1.2Zm-1.54-3a2.32,2.32,0,0,0-2.29-1.81,2.19,2.19,0,0,0-2.19,1.81Z" transform="translate(-5.49 -3.5)"/><path class="cls-1" d="M110.32,48.85h-1.09V47.28h1.09V42H112v5.25h.85l2-3h2L114.25,48l2.76,4.1h-2L113,48.85h-1v3.23h-1.66Z" transform="translate(-5.49 -3.5)"/><path class="cls-1" d="M120.05,42V49c0,.89.19,1.21.68,1.5l.9.51-.74,1.32c-1.71-.82-2.51-1.41-2.51-3V42Z" transform="translate(-5.49 -3.5)"/><path class="cls-1" d="M122.8,44.33h1.66v4.55a1.67,1.67,0,0,0,1.83,1.84,1.78,1.78,0,0,0,1.92-2V44.33h1.66v7.51a3.46,3.46,0,0,1-3.54,3.41,3.84,3.84,0,0,1-3.28-1.52l1.41-.87a2.42,2.42,0,0,0,1.78.82,1.93,1.93,0,0,0,2.06-2v-.42h0a2.73,2.73,0,0,1-2.33,1.06,3.17,3.17,0,0,1-3.14-3.48Z" transform="translate(-5.49 -3.5)"/></svg>